<svg xmlns="http://www.w3.org/2000/svg" xmlns:xlink="http://www.w3.org/1999/xlink" zoomAndPan="magnify" preserveAspectRatio="xMidYMid meet" version="1.0" viewBox="22.77 146.57 325.93 93"><defs><g></g><clipPath id="42a9ef0b94"><path d="M 63 146.578125 L 66 146.578125 L 66 149 L 63 149 Z M 63 146.578125 " clip-rule="nonzero"></path></clipPath><clipPath id="527b4829b5"><path d="M 22.769531 176 L 26 176 L 26 180 L 22.769531 180 Z M 22.769531 176 " clip-rule="nonzero"></path></clipPath><clipPath id="c62996f45c"><path d="M 24 147 L 115 147 L 115 239.578125 L 24 239.578125 Z M 24 147 " clip-rule="nonzero"></path></clipPath></defs><path fill="#3300c6" d="M 58.628906 147.851562 C 58.617188 147.734375 58.597656 147.609375 58.5625 147.472656 C 58.382812 147.675781 58.445312 147.785156 58.628906 147.851562 Z M 58.628906 147.851562 " fill-opacity="1" fill-rule="nonzero"></path><path fill="#3300c6" d="M 74.554688 147.429688 C 74.945312 147.433594 75.332031 147.433594 75.332031 147.433594 C 75.40625 147.449219 75.453125 147.457031 75.484375 147.460938 C 75.496094 147.460938 75.507812 147.457031 75.515625 147.457031 C 75.519531 147.40625 74.023438 146.96875 73.980469 147.425781 C 73.996094 147.425781 74.007812 147.425781 74.023438 147.425781 C 74.167969 147.425781 74.359375 147.429688 74.554688 147.429688 Z M 74.554688 147.429688 " fill-opacity="1" fill-rule="nonzero"></path><path fill="#3300c6" d="M 67.085938 147.738281 C 66.90625 147.664062 66.710938 147.609375 66.507812 147.570312 C 66.667969 147.625 66.867188 147.683594 67.085938 147.738281 Z M 67.085938 147.738281 " fill-opacity="1" fill-rule="nonzero"></path><path fill="#3300c6" d="M 71.398438 148.222656 C 71.097656 148.136719 70.785156 148.070312 70.464844 148.019531 C 70.1875 147.984375 69.90625 147.960938 69.621094 147.957031 C 69.335938 147.964844 69.042969 147.996094 68.75 148.046875 C 68.75 148.046875 68.753906 148.054688 68.761719 148.066406 C 69.167969 148.125 69.597656 148.171875 70.027344 148.199219 C 70.484375 148.242188 70.945312 148.242188 71.398438 148.222656 Z M 71.398438 148.222656 " fill-opacity="1" fill-rule="nonzero"></path><g clip-path="url(#42a9ef0b94)"><path fill="#3300c6" d="M 65.152344 147.824219 C 65.5 147.75 65.730469 147.699219 65.730469 147.699219 C 65.730469 147.699219 65.527344 147.417969 65.320312 147.132812 C 65.113281 146.855469 64.90625 146.574219 64.90625 146.574219 C 63.179688 146.601562 63.390625 147.074219 63.570312 147.558594 C 63.660156 147.800781 63.738281 148.050781 63.570312 148.25 C 63.679688 148.21875 63.785156 148.191406 63.894531 148.164062 C 64.351562 148.039062 64.808594 147.917969 65.152344 147.824219 Z M 65.152344 147.824219 " fill-opacity="1" fill-rule="nonzero"></path></g><path fill="#3300c6" d="M 63.570312 148.253906 C 63.570312 148.25 63.570312 148.25 63.570312 148.25 C 63.226562 148.339844 62.902344 148.4375 62.644531 148.523438 C 62.304688 148.632812 62.082031 148.707031 62.082031 148.707031 C 62.535156 148.660156 62.863281 148.59375 63.097656 148.511719 C 63.335938 148.4375 63.484375 148.355469 63.570312 148.253906 Z M 63.570312 148.253906 " fill-opacity="1" fill-rule="nonzero"></path><path fill="#3300c6" d="M 92.574219 234.558594 C 92.472656 234.703125 92.324219 234.863281 92.15625 235.03125 C 92.332031 234.976562 92.507812 234.910156 92.667969 234.8125 Z M 92.574219 234.558594 " fill-opacity="1" fill-rule="nonzero"></path><path fill="#3300c6" d="M 92.339844 233.917969 L 92.574219 234.558594 C 92.785156 234.242188 92.792969 234.003906 92.339844 233.917969 Z M 92.339844 233.917969 " fill-opacity="1" fill-rule="nonzero"></path><path fill="#3300c6" d="M 86.476562 236.839844 C 86.007812 237.324219 85.511719 237.761719 85.511719 237.761719 C 85.941406 237.679688 86.660156 237.460938 87.148438 237.144531 C 87.640625 236.824219 87.890625 236.410156 87.40625 235.898438 C 87.40625 235.898438 86.941406 236.371094 86.476562 236.839844 Z M 86.476562 236.839844 " fill-opacity="1" fill-rule="nonzero"></path><path fill="#3300c6" d="M 100.910156 220.683594 L 100.484375 220.394531 C 100.511719 220.578125 100.613281 220.707031 100.910156 220.683594 Z M 100.910156 220.683594 " fill-opacity="1" fill-rule="nonzero"></path><path fill="#3300c6" d="M 28.734375 175.324219 C 28.699219 175.230469 28.644531 175.132812 28.566406 175.027344 C 28.566406 175.027344 28.628906 175.144531 28.734375 175.324219 Z M 28.734375 175.324219 " fill-opacity="1" fill-rule="nonzero"></path><path fill="#3300c6" d="M 69.296875 237.996094 L 69.246094 237.921875 C 69.238281 237.953125 69.257812 237.976562 69.296875 237.996094 Z M 69.296875 237.996094 " fill-opacity="1" fill-rule="nonzero"></path><path fill="#3300c6" d="M 93.707031 156.304688 C 93.828125 156.183594 93.910156 156.101562 93.910156 156.101562 C 93.808594 156.152344 93.746094 156.222656 93.707031 156.304688 Z M 93.707031 156.304688 " fill-opacity="1" fill-rule="nonzero"></path><path fill="#3300c6" d="M 112.5625 204.285156 C 112.535156 204.289062 112.507812 204.289062 112.480469 204.292969 C 112.480469 204.332031 112.480469 204.371094 112.476562 204.414062 C 112.503906 204.371094 112.53125 204.332031 112.5625 204.285156 Z M 112.5625 204.285156 " fill-opacity="1" fill-rule="nonzero"></path><path fill="#3300c6" d="M 112 208.199219 C 112.1875 207.054688 112.390625 205.671875 112.476562 204.476562 C 112.476562 204.457031 112.476562 204.433594 112.476562 204.414062 C 112.074219 205.019531 111.894531 205.527344 111.878906 206.085938 C 111.863281 206.6875 111.960938 207.335938 112 208.199219 Z M 112 208.199219 " fill-opacity="1" fill-rule="nonzero"></path><path fill="#3300c6" d="M 108.566406 217.539062 C 108.65625 217.613281 108.757812 217.6875 108.878906 217.761719 C 108.863281 217.488281 108.742188 217.457031 108.566406 217.539062 Z M 108.566406 217.539062 " fill-opacity="1" fill-rule="nonzero"></path><path fill="#3300c6" d="M 105.984375 217.125 C 105.984375 217.125 106.300781 216.679688 106.601562 216.21875 C 106.890625 215.753906 107.179688 215.289062 107.179688 215.289062 C 107.5625 215.820312 107.328125 216.457031 107.042969 217.023438 C 106.765625 217.59375 106.496094 218.117188 106.878906 218.523438 C 107.34375 218.664062 108.128906 217.742188 108.566406 217.539062 C 107.804688 216.917969 108.027344 216.296875 108.175781 215.789062 C 108.339844 215.226562 108.386719 214.828125 106.832031 214.765625 C 106.761719 214.898438 106.695312 215.035156 106.628906 215.183594 C 106.402344 215.699219 106.199219 216.316406 105.984375 217.125 Z M 105.984375 217.125 " fill-opacity="1" fill-rule="nonzero"></path><path fill="#3300c6" d="M 108.421875 210.4375 C 108.339844 211.265625 108.191406 211.910156 108.011719 212.445312 C 107.871094 212.8125 107.714844 213.128906 107.554688 213.433594 C 107.726562 213.335938 107.910156 213.3125 108.097656 213.285156 C 108.582031 213.210938 109.132812 213.132812 109.519531 211.660156 C 109.519531 211.660156 109.246094 211.351562 108.972656 211.042969 C 108.695312 210.738281 108.421875 210.4375 108.421875 210.4375 Z M 108.421875 210.4375 " fill-opacity="1" fill-rule="nonzero"></path><path fill="#3300c6" d="M 106.789062 214.761719 C 106.804688 214.761719 106.816406 214.761719 106.832031 214.765625 C 107.003906 214.433594 107.179688 214.132812 107.339844 213.828125 C 107.414062 213.699219 107.484375 213.566406 107.554688 213.433594 C 107.5 213.460938 107.449219 213.496094 107.394531 213.542969 C 107.171875 213.734375 107 214.09375 106.789062 214.761719 Z M 106.789062 214.761719 " fill-opacity="1" fill-rule="nonzero"></path><path fill="#3300c6" d="M 100.71875 225.242188 C 100.914062 225.035156 101.101562 224.808594 101.273438 224.5625 C 101.273438 224.5625 101.265625 224.558594 101.25 224.554688 C 100.921875 224.804688 100.585938 225.074219 100.261719 225.359375 C 99.90625 225.652344 99.578125 225.980469 99.277344 226.3125 C 99.550781 226.160156 99.816406 225.988281 100.078125 225.792969 C 100.300781 225.625 100.515625 225.441406 100.71875 225.242188 Z M 100.71875 225.242188 " fill-opacity="1" fill-rule="nonzero"></path><path fill="#3300c6" d="M 102.667969 223.601562 C 102.84375 223.527344 103.023438 223.429688 103.195312 223.3125 C 103.039062 223.386719 102.859375 223.488281 102.667969 223.601562 Z M 102.667969 223.601562 " fill-opacity="1" fill-rule="nonzero"></path><path fill="#3300c6" d="M 101.816406 223.730469 C 101.441406 223.652344 101.273438 223.359375 101.476562 222.75 C 101.476562 222.75 101.898438 222.742188 102.320312 222.730469 C 102.742188 222.710938 103.167969 222.695312 103.167969 222.695312 C 103.167969 222.695312 103.164062 222.484375 103.160156 222.171875 C 103.15625 221.863281 103.132812 221.441406 103.101562 221.023438 C 103.042969 220.191406 102.964844 219.386719 102.964844 219.386719 C 102.980469 219.976562 102.773438 220.464844 102.484375 220.878906 C 102.203125 221.300781 101.800781 221.617188 101.484375 221.925781 C 100.847656 222.546875 100.410156 223.039062 101.269531 223.953125 C 101.269531 223.953125 100.9375 224.023438 100.605469 224.09375 C 100.277344 224.160156 99.949219 224.226562 99.949219 224.226562 C 99.949219 224.226562 100.28125 224.308594 100.609375 224.394531 C 100.890625 224.464844 101.171875 224.535156 101.25 224.554688 C 101.757812 224.175781 102.25 223.847656 102.667969 223.601562 C 102.355469 223.730469 102.050781 223.78125 101.816406 223.730469 Z M 101.816406 223.730469 " fill-opacity="1" fill-rule="nonzero"></path><path fill="#3300c6" d="M 97.601562 229.105469 C 97.328125 229.378906 97.050781 229.652344 97.050781 229.652344 C 96.988281 229.695312 96.949219 229.722656 96.925781 229.742188 C 96.917969 229.75 96.910156 229.761719 96.90625 229.769531 C 96.941406 229.804688 98.304688 229.054688 98.011719 228.699219 C 98 228.710938 97.992188 228.71875 97.984375 228.730469 C 97.878906 228.832031 97.742188 228.96875 97.601562 229.105469 Z M 97.601562 229.105469 " fill-opacity="1" fill-rule="nonzero"></path><path fill="#3300c6" d="M 105.523438 219.378906 C 105.234375 219.730469 105.050781 220.007812 104.9375 220.234375 C 104.824219 220.453125 104.777344 220.617188 104.789062 220.75 C 104.789062 220.753906 104.792969 220.753906 104.792969 220.753906 C 104.96875 220.445312 105.132812 220.148438 105.253906 219.902344 C 105.414062 219.589844 105.523438 219.378906 105.523438 219.378906 Z M 105.523438 219.378906 " fill-opacity="1" fill-rule="nonzero"></path><path fill="#3300c6" d="M 105.277344 221.242188 C 105.042969 221.132812 104.816406 221.011719 104.792969 220.753906 C 104.738281 220.851562 104.679688 220.945312 104.625 221.042969 C 104.386719 221.453125 104.152344 221.863281 103.972656 222.171875 C 103.78125 222.472656 103.65625 222.671875 103.65625 222.671875 C 103.65625 222.671875 104 222.726562 104.34375 222.78125 C 104.6875 222.832031 105.03125 222.882812 105.03125 222.882812 C 106.234375 221.640625 105.75 221.457031 105.277344 221.242188 Z M 105.277344 221.242188 " fill-opacity="1" fill-rule="nonzero"></path><path fill="#3300c6" d="M 23.300781 180.25 C 23.269531 180.078125 23.261719 179.855469 23.261719 179.621094 C 23.175781 179.78125 23.101562 179.953125 23.054688 180.136719 Z M 23.300781 180.25 " fill-opacity="1" fill-rule="nonzero"></path><path fill="#3300c6" d="M 23.921875 180.535156 L 23.300781 180.25 C 23.375 180.621094 23.539062 180.796875 23.921875 180.535156 Z M 23.921875 180.535156 " fill-opacity="1" fill-rule="nonzero"></path><g clip-path="url(#527b4829b5)"><path fill="#3300c6" d="M 25.257812 177.726562 C 25.855469 177.269531 26.089844 176.867188 25.175781 176.152344 C 25.175781 176.152344 24.898438 176.640625 24.621094 177.128906 C 24.480469 177.375 24.34375 177.621094 24.238281 177.804688 C 24.136719 177.988281 24.070312 178.113281 24.070312 178.113281 C 23.214844 177.675781 22.792969 177.453125 23.527344 176.222656 C 23.027344 176.359375 22.953125 177.746094 22.851562 178.484375 L 23.15625 178.042969 C 23.285156 178.445312 23.253906 179.078125 23.261719 179.621094 C 23.726562 178.722656 24.652344 178.175781 25.257812 177.726562 Z M 25.257812 177.726562 " fill-opacity="1" fill-rule="nonzero"></path></g><path fill="#3300c6" d="M 26.007812 175.644531 C 26.007812 175.644531 26.003906 174.984375 26 174.320312 C 25.988281 173.648438 26.03125 172.984375 26.03125 172.984375 C 25.785156 173.347656 25.429688 174.011719 25.3125 174.582031 C 25.1875 175.152344 25.304688 175.625 26.007812 175.644531 Z M 26.007812 175.644531 " fill-opacity="1" fill-rule="nonzero"></path><path fill="#3300c6" d="M 28.546875 173.710938 C 28.792969 173.339844 29.046875 173.007812 29.039062 172.574219 C 28.429688 172.960938 28.445312 172.71875 28.621094 172.296875 C 28.800781 171.875 29.140625 171.28125 29.140625 170.953125 C 27.015625 172.609375 29.074219 172.308594 28.546875 173.710938 Z M 28.546875 173.710938 " fill-opacity="1" fill-rule="nonzero"></path><path fill="#3300c6" d="M 28.546875 173.710938 C 28.4375 173.882812 28.332031 174.070312 28.269531 174.277344 C 28.410156 174.058594 28.488281 173.878906 28.546875 173.710938 Z M 28.546875 173.710938 " fill-opacity="1" fill-rule="nonzero"></path><path fill="#3300c6" d="M 37.332031 161.347656 L 37.421875 161.359375 C 37.402344 161.335938 37.371094 161.332031 37.332031 161.347656 Z M 37.332031 161.347656 " fill-opacity="1" fill-rule="nonzero"></path><g clip-path="url(#c62996f45c)"><path fill="#3300c6" d="M 114.695312 190.621094 C 114.496094 190.089844 114.273438 189.460938 114.125 188.859375 C 113.976562 188.257812 113.945312 187.664062 114.210938 187.175781 L 113.273438 187.351562 C 113.269531 187.285156 113.261719 187.222656 113.257812 187.15625 C 113.175781 186.039062 113.125 185.328125 113.132812 184.851562 C 113.121094 184.347656 113.152344 184.097656 113.199219 183.875 C 113.242188 183.648438 113.292969 183.449219 113.300781 183.042969 C 113.304688 182.839844 113.300781 182.582031 113.273438 182.246094 C 113.238281 181.910156 113.179688 181.496094 113.089844 180.96875 C 113.089844 180.96875 112.738281 180.765625 112.382812 180.558594 C 112.285156 180.503906 112.1875 180.449219 112.097656 180.398438 C 112.035156 180.167969 111.976562 179.9375 111.910156 179.710938 C 111.917969 179.703125 111.921875 179.699219 111.925781 179.691406 C 111.886719 179.578125 111.84375 179.464844 111.804688 179.351562 C 111.179688 177.222656 110.382812 175.171875 109.429688 173.210938 C 109.277344 172.714844 109.050781 172.207031 108.691406 171.734375 C 108.691406 171.734375 108.699219 171.765625 108.710938 171.8125 C 108.234375 170.921875 107.722656 170.046875 107.179688 169.199219 C 107.234375 169.152344 107.289062 169.09375 107.339844 169.011719 C 106.984375 168.488281 106.570312 168.03125 106.117188 167.628906 C 102.84375 163.027344 98.605469 159.15625 93.699219 156.316406 C 93.703125 156.3125 93.707031 156.308594 93.707031 156.304688 C 93.703125 156.308594 93.699219 156.3125 93.699219 156.3125 C 93.304688 156.085938 92.910156 155.867188 92.511719 155.65625 C 92.65625 155.492188 92.820312 155.324219 92.984375 155.15625 C 93.824219 154.289062 94.691406 153.359375 92.992188 152.632812 C 93.640625 153.429688 93.335938 154.132812 92.757812 154.542969 C 92.179688 154.957031 91.355469 155.0625 90.820312 154.679688 C 90.828125 154.710938 90.832031 154.757812 90.828125 154.808594 C 90.59375 154.695312 90.359375 154.585938 90.121094 154.480469 C 90.6875 154.289062 90.789062 153.933594 90.585938 153.566406 C 90.367188 153.171875 89.804688 152.769531 89.144531 152.636719 C 89.414062 152.765625 89.636719 152.914062 89.804688 153.082031 C 89.96875 153.253906 90.085938 153.4375 90.15625 153.617188 C 90.277344 153.9375 90.230469 154.238281 90.050781 154.449219 C 89.695312 154.289062 89.335938 154.136719 88.976562 153.988281 C 88.898438 153.933594 88.824219 153.878906 88.746094 153.820312 C 88.859375 153.773438 88.988281 153.691406 89.132812 153.550781 C 89.527344 152.890625 88.855469 152.15625 87.894531 151.449219 C 87.414062 151.109375 86.867188 150.761719 86.359375 150.425781 C 85.84375 150.105469 85.371094 149.785156 85.050781 149.453125 C 84.367188 149.359375 83.988281 149.480469 83.722656 149.671875 C 83.453125 149.871094 83.28125 150.175781 82.988281 150.554688 C 82.917969 150.105469 82.566406 149.722656 82.195312 149.371094 C 81.828125 149.023438 81.449219 148.671875 81.347656 148.21875 C 80.585938 148.378906 79.953125 148.382812 79.371094 148.289062 C 78.792969 148.191406 78.265625 147.984375 77.730469 147.828125 C 77.199219 147.660156 76.660156 147.488281 76.074219 147.441406 C 75.894531 147.433594 75.707031 147.441406 75.515625 147.457031 C 75.515625 147.460938 75.507812 147.460938 75.484375 147.460938 C 75.0625 147.5 74.621094 147.597656 74.140625 147.804688 C 74.015625 147.640625 73.972656 147.515625 73.980469 147.429688 C 73.859375 147.433594 73.777344 147.433594 73.777344 147.433594 L 73.941406 147.621094 C 73.417969 147.929688 72.792969 148.097656 72.121094 148.167969 C 71.886719 148.191406 71.644531 148.210938 71.398438 148.222656 C 71.613281 148.28125 71.824219 148.351562 72.027344 148.433594 C 72.167969 148.496094 72.304688 148.5625 72.441406 148.628906 C 72.054688 148.664062 71.574219 148.726562 71.089844 148.785156 C 70.402344 148.855469 69.722656 148.960938 69.332031 149.027344 C 69.269531 148.917969 69.1875 148.777344 69.101562 148.632812 C 68.953125 148.382812 68.800781 148.136719 68.761719 148.066406 C 68.132812 147.976562 67.554688 147.859375 67.085938 147.738281 C 67.394531 147.867188 67.644531 148.046875 67.777344 148.25 C 67.875 148.398438 67.90625 148.546875 67.855469 148.695312 C 67.75 148.699219 67.644531 148.707031 67.539062 148.710938 C 67.316406 148.730469 67.09375 148.734375 66.867188 148.746094 C 66.820312 148.699219 66.765625 148.652344 66.714844 148.601562 C 66.402344 148.3125 66.089844 148.023438 66.089844 148.023438 C 66.089844 148.023438 65.945312 148.175781 65.726562 148.402344 C 65.613281 148.515625 65.484375 148.65625 65.347656 148.808594 C 64.582031 148.839844 63.824219 148.886719 63.085938 148.917969 C 62.125 148.984375 61.199219 149.082031 60.34375 149.230469 C 59.632812 149.378906 58.972656 149.554688 58.378906 149.789062 C 58.636719 149.558594 58.992188 149.410156 59.34375 149.292969 C 59.941406 149.085938 60.503906 148.90625 60.519531 148.351562 C 60.289062 147.921875 59.082031 148.015625 58.628906 147.851562 C 58.730469 148.832031 58.132812 149.113281 57.671875 149.363281 C 57.203125 149.621094 56.902344 149.851562 57.636719 150.746094 C 57.585938 150.898438 57.59375 151.023438 57.707031 151.097656 C 57.417969 151.183594 57.144531 151.257812 56.875 151.34375 C 56.730469 151.382812 56.589844 151.425781 56.445312 151.472656 C 56.503906 151.488281 56.566406 151.5 56.632812 151.503906 C 56.90625 151.527344 57.25 151.414062 57.792969 151.140625 C 57.976562 151.199219 58.3125 151.183594 58.902344 151.046875 C 58.207031 151.734375 57.304688 151.96875 56.320312 151.980469 C 55.949219 152.003906 55.5625 151.996094 55.175781 151.976562 C 55.257812 151.933594 55.34375 151.886719 55.421875 151.847656 C 55.785156 151.6875 56.117188 151.574219 56.445312 151.472656 C 56.253906 151.417969 56.109375 151.308594 55.957031 151.195312 C 55.5625 150.902344 55.117188 150.566406 53.800781 151.335938 C 53.800781 151.335938 53.785156 151.605469 53.765625 151.921875 C 53.640625 151.921875 53.511719 151.914062 53.394531 151.917969 C 53.394531 151.917969 53.457031 151.8125 53.550781 151.652344 C 53.648438 151.488281 53.777344 151.28125 53.910156 151.074219 C 54.179688 150.660156 54.453125 150.242188 54.453125 150.242188 C 52.066406 151.0625 49.328125 151.617188 46.730469 152.554688 C 44.144531 153.472656 41.710938 154.75 40.160156 156.574219 L 41.402344 156.9375 C 41.195312 157.113281 40.988281 157.28125 40.777344 157.441406 C 40.566406 157.609375 40.363281 157.777344 40.152344 157.9375 C 39.734375 158.257812 39.308594 158.558594 38.882812 158.84375 C 38.050781 159.445312 37.207031 159.984375 36.441406 160.527344 C 35.691406 161.085938 34.964844 161.589844 34.398438 162.140625 C 33.828125 162.683594 33.371094 163.222656 33.097656 163.769531 C 34.765625 163.265625 34.539062 163.832031 33.898438 164.613281 C 33.746094 164.816406 33.566406 165.035156 33.378906 165.253906 C 33.316406 165.285156 33.253906 165.308594 33.183594 165.328125 L 33.269531 165.382812 C 32.738281 166.011719 32.191406 166.640625 32.125 166.992188 C 32.425781 166.753906 32.734375 166.484375 33.039062 166.195312 C 33.230469 166.011719 33.417969 165.816406 33.601562 165.613281 L 33.976562 165.867188 C 33.164062 166.804688 32.667969 167.382812 32.304688 167.734375 C 31.957031 168.097656 31.761719 168.25 31.570312 168.378906 C 31.378906 168.507812 31.203125 168.609375 30.90625 168.890625 C 30.761719 169.035156 30.585938 169.21875 30.363281 169.476562 C 30.152344 169.738281 29.902344 170.074219 29.59375 170.507812 C 29.59375 170.507812 29.699219 170.902344 29.800781 171.300781 C 29.855469 171.492188 29.910156 171.691406 29.953125 171.835938 C 29.996094 171.984375 30.027344 172.082031 30.027344 172.082031 C 30.113281 172.214844 30.210938 171.261719 30.464844 170.339844 C 30.699219 169.410156 31.160156 168.5625 31.769531 168.914062 C 31.722656 169.257812 31.65625 169.605469 31.570312 169.957031 C 31.492188 170.3125 31.410156 170.671875 31.316406 171.035156 C 31.21875 171.398438 31.113281 171.765625 31.003906 172.136719 C 30.898438 172.507812 30.8125 172.886719 30.714844 173.265625 C 30.621094 173.644531 30.527344 174.027344 30.445312 174.40625 C 30.367188 174.789062 30.316406 175.175781 30.269531 175.558594 C 30.222656 175.9375 30.195312 176.320312 30.183594 176.691406 C 30.179688 177.070312 30.214844 177.445312 30.261719 177.808594 C 30.261719 177.808594 29.808594 177.136719 29.386719 176.4375 C 29.132812 176.023438 28.890625 175.597656 28.734375 175.324219 C 28.929688 175.867188 28.476562 176.34375 27.914062 176.988281 C 27.578125 177.367188 27.1875 177.796875 26.847656 178.316406 C 26.535156 178.835938 26.273438 179.441406 26.175781 180.148438 C 26.175781 180.148438 26.507812 179.601562 26.839844 179.050781 C 27.007812 178.78125 27.164062 178.511719 27.296875 178.3125 C 27.429688 178.113281 27.519531 177.980469 27.519531 177.980469 C 27.894531 178.605469 28.03125 179.324219 27.980469 180.101562 C 27.921875 180.875 27.761719 181.722656 27.5625 182.605469 C 27.511719 182.828125 27.460938 183.050781 27.410156 183.277344 C 27.367188 183.5 27.328125 183.730469 27.285156 183.957031 C 27.207031 184.414062 27.136719 184.871094 27.089844 185.324219 C 27.011719 186.230469 27.074219 187.121094 27.335938 187.914062 C 27.410156 187.070312 27.488281 186.226562 28.167969 186.148438 C 28.226562 186.226562 28.269531 186.3125 28.308594 186.410156 C 28.304688 186.726562 28.328125 186.785156 28.398438 186.746094 C 28.453125 187.082031 28.429688 187.484375 28.355469 187.90625 C 28.246094 188.621094 28.035156 189.390625 27.820312 189.964844 C 27.730469 189.949219 27.648438 189.921875 27.570312 189.886719 C 27.480469 189.320312 27.519531 188.765625 27.90625 187.996094 C 27.90625 187.996094 27.570312 188.050781 27.230469 188.109375 C 26.890625 188.167969 26.550781 188.226562 26.550781 188.226562 C 26.558594 188.359375 26.574219 188.484375 26.585938 188.613281 C 26.585938 188.613281 26.585938 188.609375 26.585938 188.609375 C 26.324219 187.894531 26.285156 186.988281 26.226562 186.121094 C 26.148438 184.382812 26.222656 182.785156 25.210938 183.03125 C 25.035156 183.949219 25.042969 184.863281 25.191406 185.734375 C 25.355469 186.605469 25.605469 187.433594 25.882812 188.203125 C 26.171875 188.96875 26.457031 189.679688 26.625 190.328125 C 26.8125 190.976562 26.90625 191.574219 26.765625 192.125 C 26.765625 192.125 26.402344 191.6875 26.039062 191.25 C 25.859375 191.023438 25.675781 190.800781 25.542969 190.632812 C 25.402344 190.460938 25.320312 190.347656 25.320312 190.347656 C 25.320312 190.347656 25.34375 190.457031 25.394531 190.625 C 25.4375 190.789062 25.5 191.011719 25.5625 191.234375 C 25.6875 191.671875 25.808594 192.109375 25.808594 192.109375 L 25.898438 191.589844 C 26.480469 191.949219 26.449219 192.503906 26.359375 193.152344 C 26.277344 193.796875 26.109375 194.542969 26.34375 195.222656 C 26.34375 195.222656 25.972656 195.023438 25.601562 194.824219 C 25.226562 194.613281 24.855469 194.40625 24.855469 194.40625 C 24.855469 194.40625 24.867188 194.574219 24.882812 194.824219 C 24.902344 195.074219 24.910156 195.40625 24.953125 195.738281 C 25.027344 196.40625 25.101562 197.070312 25.101562 197.070312 L 25.441406 196.683594 C 26.59375 200.851562 27.277344 204.378906 27.832031 208.355469 C 27.832031 208.355469 27.816406 208.207031 27.789062 207.984375 C 27.765625 207.761719 27.722656 207.472656 27.707031 207.175781 C 27.667969 206.585938 27.625 205.996094 27.625 205.996094 C 27.960938 206.085938 28.40625 207.230469 28.621094 208.273438 C 28.972656 207.96875 28.804688 207.199219 28.722656 206.472656 C 28.640625 205.875 28.578125 205.332031 28.78125 205.152344 C 28.96875 206.199219 29.195312 207.238281 29.464844 208.269531 C 29.476562 208.511719 29.488281 208.75 29.492188 208.992188 C 29.503906 209.542969 29.539062 210.09375 29.605469 210.746094 C 29.640625 211.070312 29.6875 211.417969 29.757812 211.800781 C 29.835938 212.179688 29.941406 212.589844 30.074219 213.046875 C 30.320312 213.074219 30.503906 212.667969 30.734375 212.261719 C 30.992188 212.945312 31.273438 213.621094 31.570312 214.292969 C 31.347656 214.453125 30.992188 214.441406 30.378906 214.085938 C 31.410156 215.019531 31.445312 215.5625 31.515625 216.03125 C 31.582031 216.496094 31.707031 216.871094 32.875 217.355469 C 32.671875 217.1875 32.527344 216.824219 32.382812 216.460938 C 32.414062 216.355469 32.453125 216.285156 32.5 216.234375 C 32.988281 217.191406 33.515625 218.128906 34.089844 219.050781 C 34.101562 219.835938 34.257812 220.621094 34.90625 221.640625 C 34.90625 221.640625 35.105469 221.816406 35.410156 222.074219 C 35.710938 222.335938 36.136719 222.660156 36.550781 222.988281 C 36.867188 223.242188 37.191406 223.488281 37.46875 223.695312 C 37.683594 223.949219 37.902344 224.203125 38.125 224.453125 C 38.015625 224.539062 37.875 224.566406 37.875 224.566406 C 38.265625 224.878906 38.640625 225.210938 39.011719 225.550781 C 39.390625 225.878906 39.765625 226.214844 40.128906 226.558594 C 40.191406 226.617188 40.25 226.671875 40.3125 226.726562 C 40.398438 226.8125 40.488281 226.894531 40.574219 226.980469 C 40.601562 227.167969 40.71875 227.351562 40.988281 227.5 C 41.097656 227.554688 41.195312 227.597656 41.28125 227.628906 C 41.292969 227.636719 41.300781 227.648438 41.3125 227.65625 C 41.648438 227.960938 41.980469 228.257812 42.304688 228.558594 C 43.03125 229.1875 43.753906 229.773438 44.464844 230.277344 C 44.722656 230.445312 44.980469 230.601562 45.230469 230.75 C 46.257812 231.457031 47.308594 232.113281 48.382812 232.714844 C 48.382812 232.722656 48.382812 232.730469 48.382812 232.738281 C 48.472656 232.78125 48.566406 232.820312 48.65625 232.863281 C 49.109375 233.113281 49.570312 233.355469 50.03125 233.585938 C 49.660156 233.664062 49.347656 233.730469 49.347656 233.730469 C 51.613281 234.839844 53.941406 236.386719 56.4375 237.558594 C 58.917969 238.738281 61.539062 239.5625 63.925781 239.363281 L 63.304688 238.230469 C 63.574219 238.253906 63.839844 238.28125 64.105469 238.316406 C 64.367188 238.34375 64.632812 238.371094 64.894531 238.40625 C 65.417969 238.476562 65.929688 238.566406 66.433594 238.664062 C 67.445312 238.828125 68.421875 239.042969 69.347656 239.199219 C 70.273438 239.339844 71.144531 239.496094 71.933594 239.507812 C 72.71875 239.527344 73.421875 239.46875 74.003906 239.273438 C 72.46875 238.453125 73.027344 238.210938 74.035156 238.113281 C 75.046875 237.96875 76.546875 237.972656 76.96875 237.683594 C 76.585938 237.640625 76.179688 237.613281 75.761719 237.601562 C 75.34375 237.59375 74.914062 237.609375 74.480469 237.636719 C 73.621094 237.707031 72.75 237.765625 71.972656 237.867188 C 70.621094 238.003906 69.539062 238.113281 69.296875 237.992188 L 69.390625 238.125 C 69.390625 238.125 69.039062 238.160156 68.507812 238.179688 C 67.976562 238.203125 67.261719 238.242188 66.546875 238.261719 C 65.828125 238.257812 65.109375 238.253906 64.570312 238.25 C 64.300781 238.25 64.074219 238.246094 63.917969 238.234375 C 63.757812 238.226562 63.667969 238.21875 63.667969 238.21875 L 63.851562 237.527344 C 68.511719 237.96875 73.238281 237.582031 77.789062 236.367188 C 77.789062 236.371094 77.789062 236.378906 77.792969 236.382812 C 77.792969 236.378906 77.792969 236.371094 77.792969 236.367188 C 78.226562 236.25 78.664062 236.125 79.097656 235.992188 C 79.109375 236.210938 79.113281 236.445312 79.117188 236.679688 C 79.132812 237.890625 79.175781 239.160156 80.890625 238.46875 C 79.867188 238.367188 79.589844 237.652344 79.707031 236.957031 C 79.824219 236.25 80.332031 235.59375 80.980469 235.488281 C 80.949219 235.46875 80.917969 235.4375 80.882812 235.402344 C 81.128906 235.3125 81.371094 235.226562 81.613281 235.132812 C 81.351562 235.667969 81.53125 235.992188 81.933594 236.105469 C 82.269531 236.203125 82.757812 236.15625 83.21875 235.953125 C 83.761719 236.101562 83.585938 236.253906 83.191406 236.414062 C 82.769531 236.582031 82.109375 236.761719 81.878906 236.996094 C 84.183594 237.28125 83.261719 236.394531 83.835938 235.75 C 84.25 235.820312 84.765625 235.785156 85.328125 235.699219 C 85.910156 235.597656 86.542969 235.457031 87.140625 235.335938 C 87.632812 235.222656 88.101562 235.132812 88.511719 235.109375 C 88.351562 235.28125 88.289062 235.589844 88.355469 236.125 C 88.355469 236.125 88.894531 235.972656 89.4375 235.824219 C 89.710938 235.75 89.980469 235.675781 90.183594 235.617188 C 90.386719 235.5625 90.523438 235.519531 90.523438 235.519531 C 90.816406 236.433594 90.957031 236.890625 89.570312 237.242188 C 90.015625 237.496094 91.054688 236.570312 91.644531 236.121094 L 91.121094 236.214844 C 91.308594 235.839844 91.777344 235.414062 92.15625 235.027344 C 91.191406 235.332031 90.152344 235.066406 89.40625 234.953125 C 89.242188 234.929688 89.09375 234.917969 88.960938 234.929688 C 89.351562 234.582031 89.492188 234.28125 89.539062 234.003906 C 89.589844 233.671875 89.492188 233.335938 89.433594 232.859375 C 89.800781 233.128906 90.320312 233.152344 90.828125 233.136719 C 91.335938 233.121094 91.851562 233.101562 92.242188 233.351562 C 92.667969 232.699219 93.113281 232.25 93.589844 231.902344 C 94.070312 231.5625 94.585938 231.335938 95.078125 231.070312 C 95.570312 230.808594 96.074219 230.550781 96.519531 230.167969 C 96.65625 230.046875 96.78125 229.910156 96.90625 229.765625 C 96.902344 229.761719 96.910156 229.753906 96.925781 229.738281 C 97.195312 229.414062 97.4375 229.027344 97.628906 228.542969 C 97.835938 228.574219 97.953125 228.628906 98.011719 228.695312 C 98.09375 228.609375 98.148438 228.550781 98.148438 228.550781 L 97.902344 228.535156 C 98.054688 227.945312 98.378906 227.382812 98.804688 226.855469 C 98.953125 226.671875 99.113281 226.492188 99.277344 226.308594 C 99.082031 226.417969 98.886719 226.519531 98.679688 226.605469 C 97.683594 227.003906 96.679688 227.234375 95.6875 227.34375 C 95.085938 227.421875 94.523438 227.484375 93.992188 227.550781 C 94.460938 227.125 94.925781 226.6875 95.378906 226.234375 C 95.648438 226.425781 95.914062 226.613281 95.914062 226.613281 C 96.339844 226.121094 96.707031 225.617188 97.035156 225.09375 C 97.351562 224.589844 97.613281 224.042969 97.882812 223.5 C 98.753906 222.453125 99.5625 221.375 100.308594 220.265625 L 100.484375 220.390625 C 100.464844 220.257812 100.71875 219.921875 101.132812 219.398438 C 101.34375 219.136719 101.601562 218.835938 101.894531 218.5 C 102.175781 218.15625 102.488281 217.773438 102.828125 217.359375 C 102.839844 217.34375 102.851562 217.332031 102.859375 217.316406 C 105.773438 214.183594 108.179688 210.570312 109.957031 206.613281 C 109.96875 206.605469 109.980469 206.597656 109.996094 206.589844 C 110.199219 206.445312 110.398438 206.296875 110.527344 206.328125 C 110.65625 206.359375 110.71875 206.574219 110.578125 207.152344 C 110.59375 207.488281 110.785156 206.632812 110.808594 205.640625 C 110.824219 205.292969 110.820312 204.929688 110.792969 204.601562 C 110.90625 204.300781 111.019531 204 111.128906 203.695312 C 111.324219 204.109375 111.722656 204.34375 112.484375 204.289062 C 112.527344 203.175781 112.476562 202.261719 112.179688 201.914062 L 112.445312 202.117188 C 112.445312 202.117188 112.289062 201.589844 112.007812 200.882812 C 112.179688 200.25 112.339844 199.605469 112.480469 198.957031 C 112.8125 199.542969 113.203125 199.898438 113.773438 199.597656 C 113.773438 199.597656 113.53125 199.082031 113.285156 198.570312 C 113.167969 198.316406 113.035156 198.0625 112.933594 197.875 C 112.832031 197.6875 112.765625 197.5625 112.765625 197.5625 C 113.921875 198.265625 113.605469 195.589844 114.472656 196.089844 C 114.472656 196.089844 114.460938 196.003906 114.425781 195.847656 C 114.394531 195.695312 114.347656 195.480469 114.292969 195.21875 C 114.175781 194.695312 114.054688 194.003906 113.867188 193.320312 C 113.691406 192.667969 113.53125 192.023438 113.382812 191.527344 C 113.390625 191.195312 113.398438 190.863281 113.398438 190.527344 L 114.210938 190.308594 C 114.210938 190.308594 114.121094 190.660156 114.03125 191.011719 C 113.984375 191.1875 113.9375 191.363281 113.902344 191.492188 C 113.863281 191.625 113.839844 191.710938 113.839844 191.710938 C 114.523438 192.03125 114.828125 192.03125 114.921875 191.808594 C 115.019531 191.589844 114.886719 191.148438 114.695312 190.621094 Z M 34.527344 174.023438 C 34.65625 173.652344 34.78125 173.289062 34.867188 172.921875 C 34.890625 172.839844 34.90625 172.761719 34.925781 172.679688 C 35.242188 172.46875 35.535156 172.5625 35.777344 173.304688 C 35.777344 173.304688 35.316406 173.730469 34.851562 174.15625 C 34.609375 174.402344 34.367188 174.644531 34.199219 174.816406 C 34.324219 174.550781 34.4375 174.289062 34.527344 174.023438 Z M 35.167969 171.589844 C 35.230469 171.332031 35.289062 171.074219 35.355469 170.828125 C 35.402344 170.636719 35.457031 170.453125 35.515625 170.269531 C 35.609375 170.886719 35.457031 171.289062 35.167969 171.589844 Z M 37.335938 172.132812 C 37.515625 172.113281 37.71875 172.148438 37.964844 172.246094 C 37.738281 172.503906 37.515625 172.765625 37.296875 173.027344 C 37.296875 172.867188 37.300781 172.703125 37.3125 172.539062 C 37.320312 172.402344 37.328125 172.265625 37.335938 172.132812 Z M 31.851562 181.042969 C 31.914062 180.570312 31.90625 180.042969 31.878906 179.492188 C 31.863281 178.796875 31.800781 178.070312 31.773438 177.417969 C 31.773438 177.335938 31.773438 177.257812 31.773438 177.179688 C 31.871094 176.964844 31.976562 176.777344 32.085938 176.644531 C 31.980469 176.675781 31.882812 176.722656 31.785156 176.773438 C 31.804688 176.398438 31.847656 176.066406 31.9375 175.820312 C 32.007812 176.035156 32.316406 175.597656 32.695312 175.113281 C 33.066406 175.246094 33.453125 174.707031 33.839844 174.085938 C 34 174.113281 34.085938 174.359375 34.046875 174.96875 C 33.996094 175.019531 33.964844 175.050781 33.964844 175.050781 C 33.992188 175.050781 34.015625 175.046875 34.042969 175.046875 C 34.039062 175.082031 34.039062 175.113281 34.035156 175.148438 C 34.050781 175.113281 34.066406 175.082031 34.085938 175.042969 C 34.734375 175.007812 35.152344 174.777344 35.472656 174.464844 C 35.820312 174.136719 36.035156 173.703125 36.234375 173.289062 C 36.414062 172.921875 36.59375 172.578125 36.835938 172.363281 C 36.824219 172.390625 36.816406 172.414062 36.808594 172.441406 C 36.699219 172.761719 36.601562 173.109375 36.496094 173.453125 C 36.40625 173.765625 36.3125 174.074219 36.222656 174.371094 C 36.0625 174.585938 35.898438 174.800781 35.738281 175.019531 C 35.691406 175.035156 35.652344 175.042969 35.621094 175.042969 C 35.617188 175.089844 35.625 175.128906 35.632812 175.164062 C 34.242188 177.09375 33.042969 179.117188 32.039062 181.210938 C 31.972656 181.160156 31.910156 181.105469 31.851562 181.042969 Z M 112.59375 181.703125 C 113.054688 182.472656 113.320312 183.332031 112.796875 183.589844 C 112.65625 182.796875 112.492188 182.011719 112.304688 181.234375 C 112.402344 181.382812 112.5 181.542969 112.59375 181.703125 Z M 88.71875 153.882812 C 88.691406 153.871094 88.667969 153.863281 88.640625 153.851562 C 88.652344 153.851562 88.664062 153.847656 88.675781 153.847656 C 88.6875 153.859375 88.703125 153.871094 88.71875 153.882812 Z M 87.738281 153.070312 C 87.691406 153.03125 87.640625 153 87.59375 152.960938 C 87.59375 152.960938 87.652344 153.007812 87.746094 153.082031 C 87.777344 153.128906 87.808594 153.175781 87.839844 153.222656 C 87.941406 153.378906 88.039062 153.539062 88.152344 153.660156 C 87.691406 153.480469 87.226562 153.3125 86.753906 153.148438 C 87.199219 152.503906 87.484375 152.707031 87.738281 153.070312 Z M 69.191406 149.050781 C 69.070312 149.070312 69 149.082031 69 149.082031 C 68.949219 149.019531 68.9375 148.949219 68.941406 148.882812 C 69.027344 148.941406 69.113281 149 69.191406 149.050781 Z M 68.320312 148.480469 C 68.320312 148.480469 68.429688 148.550781 68.578125 148.644531 C 68.488281 148.652344 68.398438 148.660156 68.308594 148.667969 C 68.316406 148.609375 68.320312 148.546875 68.320312 148.480469 Z M 47.183594 153.863281 C 47.097656 153.9375 47.011719 154.007812 46.925781 154.078125 C 46.90625 154.058594 46.890625 154.039062 46.867188 154.019531 C 46.976562 153.957031 47.082031 153.90625 47.183594 153.863281 Z M 44.675781 155.785156 C 44.929688 155.707031 45.179688 155.640625 45.425781 155.574219 C 45.199219 155.867188 45.054688 156.128906 45.039062 156.339844 L 44.992188 156.007812 C 44.992188 156.007812 44.714844 156.519531 44.40625 157.253906 C 44.089844 157.980469 43.789062 158.976562 43.65625 159.871094 C 43.863281 159.289062 44.28125 158.746094 44.746094 158.246094 C 45.234375 157.761719 45.769531 157.320312 46.199219 156.898438 C 46.882812 156.273438 47.332031 155.679688 46.976562 155.011719 C 47.246094 154.816406 47.3125 154.570312 47.070312 154.246094 C 47.476562 154.117188 47.796875 153.945312 48.078125 153.707031 C 48.527344 153.746094 48.890625 153.960938 49.128906 154.242188 C 48.976562 154.371094 48.808594 154.515625 48.644531 154.675781 C 47.910156 155.332031 47.222656 156.203125 47.386719 156.558594 C 47.722656 156.492188 48.03125 155.925781 48.429688 155.535156 C 48.824219 155.132812 49.261719 154.863281 49.746094 155.339844 C 50.804688 154.742188 50.390625 154.679688 49.902344 154.585938 C 49.9375 154.558594 49.96875 154.539062 50.007812 154.511719 C 50.355469 154.292969 50.820312 153.996094 51.285156 153.699219 C 51.753906 153.398438 52.234375 153.121094 52.597656 152.917969 C 52.960938 152.714844 53.203125 152.578125 53.203125 152.578125 C 53.839844 152.984375 53.390625 154.617188 52.898438 154.671875 C 52.5 154.785156 52.070312 155.023438 51.625 155.285156 C 51.175781 155.550781 50.703125 155.824219 50.230469 156.089844 C 49.285156 156.625 48.289062 156.976562 47.253906 156.695312 C 46.824219 157.378906 47.285156 157.582031 47.523438 157.824219 C 47.769531 158.074219 47.785156 158.328125 46.582031 159.160156 C 44.847656 159.429688 43.21875 160.210938 41.738281 161.175781 C 41.789062 160.621094 42.113281 159.886719 42.394531 159.164062 C 42.820312 158.125 43.171875 157.132812 42.273438 156.851562 C 42.273438 156.851562 42.082031 157.386719 41.890625 157.921875 C 41.855469 158.027344 41.820312 158.128906 41.785156 158.230469 C 41.335938 156.964844 43.054688 156.234375 44.675781 155.785156 Z M 40.488281 157.816406 C 40.683594 157.625 40.847656 157.472656 40.964844 157.367188 C 41.082031 157.261719 41.148438 157.203125 41.148438 157.203125 L 41.773438 158.269531 C 41.726562 158.414062 41.683594 158.550781 41.652344 158.664062 C 41.589844 158.867188 41.546875 159.003906 41.546875 159.003906 C 41.242188 157.753906 39.71875 159.605469 39.347656 158.949219 C 39.769531 158.53125 40.171875 158.132812 40.488281 157.816406 Z M 37.171875 161.320312 C 37.171875 161.320312 37.398438 161.042969 37.757812 160.652344 C 38.089844 160.289062 38.523438 159.808594 38.980469 159.324219 C 38.925781 159.402344 38.871094 159.484375 38.8125 159.578125 C 38.527344 160.03125 38.121094 160.609375 37.773438 161.226562 C 37.417969 161.839844 37.058594 162.441406 36.808594 162.90625 C 36.5625 163.371094 36.402344 163.683594 36.402344 163.683594 L 35.609375 163.230469 C 35.742188 163.066406 35.871094 162.910156 35.992188 162.757812 C 36.003906 162.753906 36.015625 162.746094 36.027344 162.738281 C 36.183594 162.648438 36.339844 162.558594 36.457031 162.488281 C 36.578125 162.425781 36.65625 162.378906 36.65625 162.378906 C 36.617188 162.277344 36.582031 162.1875 36.546875 162.101562 C 36.910156 161.675781 37.191406 161.394531 37.332031 161.34375 Z M 29.546875 182.71875 C 30.261719 180.550781 30.074219 183.496094 30.914062 182.6875 C 31.113281 182.585938 31.265625 182.453125 31.390625 182.292969 C 31.402344 182.390625 31.40625 182.492188 31.40625 182.597656 C 31.109375 183.289062 30.832031 183.988281 30.574219 184.691406 C 30.308594 184.808594 30.074219 184.714844 29.894531 184.460938 C 29.769531 184.285156 29.667969 184.035156 29.601562 183.734375 C 29.539062 183.4375 29.527344 183.089844 29.546875 182.71875 Z M 56.828125 236.210938 C 57.011719 236.265625 57.195312 236.316406 57.378906 236.367188 C 57.378906 236.386719 57.375 236.40625 57.375 236.429688 C 57.167969 236.371094 56.984375 236.300781 56.828125 236.210938 Z M 60.976562 237.152344 C 61.835938 237.296875 62.699219 237.410156 63.566406 237.5 C 62.960938 237.910156 61.96875 237.628906 60.976562 237.152344 Z M 83.15625 235.867188 C 83.042969 235.886719 82.933594 235.902344 82.828125 235.902344 C 82.585938 235.898438 82.375 235.847656 82.203125 235.769531 C 81.890625 235.628906 81.707031 235.386719 81.683594 235.109375 C 82.160156 234.925781 82.632812 234.734375 83.105469 234.535156 C 83.027344 234.652344 82.976562 234.828125 82.96875 235.09375 C 83.039062 235.371094 83.222656 235.554688 83.488281 235.660156 C 83.367188 235.710938 83.257812 235.777344 83.15625 235.867188 Z M 84.117188 234.410156 C 83.933594 234.371094 83.75 234.332031 83.585938 234.324219 C 84.039062 234.125 84.488281 233.914062 84.9375 233.695312 C 85.09375 234.574219 84.628906 234.523438 84.117188 234.410156 Z M 84.117188 234.410156 " fill-opacity="1" fill-rule="nonzero"></path></g><path fill="#3300c6" d="M 77.792969 236.386719 C 77.792969 236.554688 77.792969 236.671875 77.792969 236.671875 C 77.824219 236.566406 77.820312 236.46875 77.792969 236.386719 Z M 77.792969 236.386719 " fill-opacity="1" fill-rule="nonzero"></path><g fill="#ffffff" fill-opacity="1"><g transform="translate(135.456147, 218.92827)"><g><path d="M 29.984375 -47.976562 C 25.222656 -47.976562 20.285156 -46.476562 17.640625 -44.273438 L 14.109375 -39.246094 L 14.109375 -46.742188 L 6.527344 -46.742188 L 6.527344 17.285156 L 14.109375 17.285156 L 14.109375 -6.4375 L 17.199219 -1.851562 C 19.578125 0.0898438 24.519531 1.234375 28.398438 1.234375 C 40.480469 1.234375 51.242188 -6.789062 51.242188 -24.078125 C 51.242188 -37.746094 43.65625 -47.976562 29.984375 -47.976562 Z M 28.398438 -4.585938 C 21.695312 -4.585938 14.109375 -9.171875 14.109375 -21.253906 L 14.109375 -23.8125 C 14.109375 -37.21875 21.078125 -42.15625 28.839844 -42.15625 C 38.1875 -42.15625 42.949219 -33.777344 42.949219 -23.195312 C 42.949219 -10.9375 36.601562 -4.585938 28.398438 -4.585938 Z M 28.398438 -4.585938 "></path></g></g></g><g fill="#ffffff" fill-opacity="1"><g transform="translate(189.340984, 218.92827)"><g><path d="M 45.332031 -46.742188 L 37.746094 -46.742188 L 37.746094 -26.195312 C 37.746094 -10.230469 31.925781 -4.761719 24.605469 -4.761719 C 18.257812 -4.761719 14.464844 -8.378906 13.757812 -13.671875 C 13.492188 -16.050781 13.40625 -18.609375 13.40625 -20.109375 L 13.40625 -46.742188 L 5.820312 -46.742188 L 5.820312 -18.695312 C 5.820312 -14.90625 5.910156 -13.054688 6.261719 -10.671875 C 7.320312 -4.234375 12.964844 1.234375 22.664062 1.234375 C 27.429688 1.234375 30.867188 0.441406 34.835938 -2.46875 L 37.746094 -7.9375 L 37.746094 0 L 45.332031 0 Z M 45.332031 -46.742188 "></path></g></g></g><g fill="#ffffff" fill-opacity="1"><g transform="translate(241.550194, 218.92827)"><g><path d="M 13.757812 -64.824219 L 6.171875 -64.824219 L 6.171875 -13.140625 C 6.171875 -10.582031 6.171875 -8.554688 6.261719 -6.96875 C 6.527344 -1.058594 9.789062 0.351562 14.199219 0.351562 C 15.964844 0.351562 17.902344 0.265625 19.578125 0 L 19.578125 -5.46875 C 15.433594 -5.027344 14.023438 -5.996094 13.847656 -8.996094 C 13.757812 -10.496094 13.757812 -11.996094 13.757812 -13.40625 Z M 13.757812 -64.824219 "></path></g></g></g><g fill="#ffffff" fill-opacity="1"><g transform="translate(263.333428, 218.92827)"><g><path d="M 20.109375 -47.976562 C 10.496094 -47.976562 3.96875 -42.863281 3.96875 -34.308594 C 3.96875 -26.105469 10.671875 -22.664062 19.050781 -20.371094 C 26.898438 -18.257812 30.074219 -15.875 30.074219 -11.378906 C 30.074219 -6.878906 26.015625 -4.585938 20.992188 -4.585938 C 15.609375 -4.585938 11.289062 -6.96875 10.054688 -13.757812 L 2.117188 -13.757812 C 3.527344 -3.175781 10.847656 1.234375 20.460938 1.234375 C 30.339844 1.234375 37.835938 -3.175781 37.835938 -11.996094 C 37.835938 -19.933594 32.71875 -24.164062 21.960938 -26.988281 C 15.609375 -28.664062 11.730469 -30.515625 11.730469 -35.191406 C 11.730469 -39.246094 14.199219 -42.15625 19.492188 -42.15625 C 24.960938 -42.15625 28.308594 -38.894531 29.367188 -33.425781 L 37.304688 -33.425781 C 36.335938 -41.980469 30.601562 -47.976562 20.109375 -47.976562 Z M 20.109375 -47.976562 "></path></g></g></g><g fill="#ffffff" fill-opacity="1"><g transform="translate(303.813195, 218.92827)"><g><path d="M 44.890625 -24.695312 C 44.890625 -38.363281 37.746094 -47.976562 24.871094 -47.976562 C 12.082031 -47.976562 2.644531 -38.363281 2.644531 -23.195312 C 2.644531 -6.703125 11.730469 1.234375 23.902344 1.234375 C 33.515625 1.234375 42.421875 -3.792969 44.273438 -15.082031 L 36.335938 -15.082031 C 35.277344 -8.378906 30.339844 -4.585938 24.253906 -4.585938 C 17.375 -4.585938 11.554688 -8.730469 10.847656 -21.078125 L 44.714844 -21.078125 C 44.890625 -22.753906 44.890625 -23.988281 44.890625 -24.695312 Z M 24.695312 -42.15625 C 32.367188 -42.15625 36.511719 -36.601562 37.21875 -26.898438 L 10.9375 -26.898438 C 11.816406 -36.867188 17.285156 -42.15625 24.695312 -42.15625 Z M 24.695312 -42.15625 "></path></g></g></g></svg>